<svg width="14" height="15" viewBox="0 0 14 15" fill="none" xmlns="http://www.w3.org/2000/svg">
<path d="M11.6694 0.5H2.31533C1.04119 0.5 0.00012207 1.54107 0.00012207 2.81521V12.1848C0.00012207 13.4589 1.04119 14.5 2.31533 14.5H11.6849C12.9591 14.5 14.0001 13.4589 14.0001 12.1848V2.81521C13.9846 1.54107 12.9435 0.5 11.6694 0.5ZM12.4463 2.81521V4.04273C12.4463 4.43119 12.1355 4.74195 11.7471 4.74195H10.4574C10.0689 4.74195 9.75817 4.43119 9.75817 4.04273V2.75305C9.75817 2.36459 10.0689 2.05383 10.4574 2.05383H11.7471C12.1355 2.05383 12.4463 2.36459 12.4463 2.75305V2.81521ZM9.6494 7.49223C9.6494 8.96837 8.45295 10.1493 6.99235 10.1493C5.51622 10.1493 4.33531 8.95283 4.33531 7.49223C4.33531 6.03163 5.53175 4.83518 6.99235 4.83518C8.45295 4.83518 9.6494 6.01609 9.6494 7.49223ZM11.6694 12.9462H2.31533C1.89579 12.9462 1.53841 12.6043 1.53841 12.1693V6.06271H3.03009C2.87471 6.51332 2.78148 6.97947 2.78148 7.49223C2.78148 9.80744 4.66161 11.6876 6.99235 11.6876C9.30756 11.6876 11.1877 9.80744 11.1877 7.49223C11.1877 6.99501 11.0945 6.51332 10.9391 6.06271H12.4308V12.1693C12.4463 12.6043 12.1045 12.9462 11.6694 12.9462Z" fill="#DDDDE1"/>
</svg>
