<svg width="15" height="11" viewBox="0 0 15 11" fill="none" xmlns="http://www.w3.org/2000/svg">
<path d="M14.6681 1.92883L14.6869 2.04412C14.5056 1.43883 14.0163 0.971772 13.3944 0.801773L13.3813 0.798831C12.2119 0.500008 7.50634 0.500008 7.50634 0.500008C7.50634 0.500008 2.81265 0.494126 1.63141 0.798831C0.997672 0.971772 0.507678 1.43883 0.329555 2.03177L0.32643 2.04412C-0.11044 4.19177 -0.113565 6.77236 0.345805 9.07177L0.32643 8.9553C0.507678 9.56059 0.997047 10.0276 1.61891 10.1976L1.63204 10.2006C2.80015 10.5 7.50697 10.5 7.50697 10.5C7.50697 10.5 12.2 10.5 13.3819 10.2006C14.0163 10.0276 14.5063 9.56059 14.6844 8.96765L14.6875 8.9553C14.8863 7.95647 15 6.80706 15 5.63295C15 5.59 15 5.54647 14.9994 5.50295C15 5.46295 15 5.4153 15 5.36765C15 4.19295 14.8863 3.04354 14.6681 1.92883ZM6.00511 7.64765V3.35765L9.92131 5.50589L6.00511 7.64765Z" fill="#DDDDE1"/>
</svg>
